<svg width="45" height="53" viewBox="0 0 45 53" fill="none" xmlns="http://www.w3.org/2000/svg">
<path d="M42.408 29.9165C41.0358 26.7582 39.1409 23.698 36.7449 20.8337C33.848 17.3487 30.962 15.0181 29.4918 13.94L35.046 3.63746C35.3182 3.1256 35.2311 2.49395 34.8064 2.091C33.3688 0.686108 31.8441 0 30.1452 0C28.5879 0 27.1612 0.588093 25.9197 1.11084C24.9395 1.51379 24.0138 1.90586 23.2623 1.90586C23.0336 1.90586 22.8376 1.87318 22.6416 1.79695C20.0496 0.849468 18.0566 0.261375 16.129 0.261375C13.6895 0.261375 11.6094 1.24153 9.57285 3.33253C9.14811 3.76815 9.08277 4.45426 9.42038 4.96612L15.4102 14.0162C13.9291 15.1162 11.0975 17.425 8.25508 20.8337C5.87004 23.698 3.96418 26.7582 2.59197 29.9165C0.871249 33.8916 0 38.0409 0 42.2447C0 47.8316 4.55227 52.3838 10.1392 52.3838H34.8608C40.4477 52.3838 45 47.8316 45 42.2447C45 38.0409 44.1288 33.8916 42.408 29.9165ZM12.2084 4.42159C13.4717 3.33253 14.6805 2.85334 16.129 2.85334C17.6755 2.85334 19.418 3.37609 21.7377 4.23645C22.2168 4.4107 22.7287 4.49782 23.2515 4.49782C24.5257 4.49782 25.7454 3.99685 26.9107 3.50678C28.0324 3.03848 29.0997 2.59196 30.1343 2.59196C30.6353 2.59196 31.3432 2.67909 32.2362 3.31075L27.0087 13.0252H17.9042L12.2084 4.42159ZM34.8608 49.7701H10.1392C5.98984 49.7701 2.61375 46.394 2.61375 42.2447C2.61375 35.2638 5.17304 28.6423 10.2045 22.5653C13.3846 18.721 16.6191 16.3359 17.5992 15.6389H27.379C28.37 16.325 31.5937 18.721 34.7737 22.5653C39.8161 28.6423 42.3645 35.2529 42.3645 42.2447C42.3863 46.394 39.0102 49.7701 34.8608 49.7701Z" fill="#8765DB"/>
<path d="M21.2817 35.5793L21.3608 37.4118C21.3608 38.4929 21.0884 39.3542 20.5435 39.9958H29.1523V43.1731H15.1909V39.9958H16.4038C17.0366 39.8376 17.353 39.051 17.353 37.636L17.2871 35.5793H15.1514V32.468H17.1816L17.0894 29.4753C17.0894 27.6999 17.6299 26.2981 18.7109 25.2698C19.8008 24.2414 21.2554 23.7273 23.0747 23.7273C24.938 23.7273 26.4014 24.2239 27.4648 25.217C28.5283 26.2014 29.0601 27.5373 29.0601 29.2248H25.2764C25.2764 28.4778 25.083 27.9065 24.6963 27.511C24.3184 27.1155 23.7734 26.9177 23.0615 26.9177C22.4814 26.9177 21.998 27.133 21.6113 27.5637C21.2334 27.9944 21.0444 28.6316 21.0444 29.4753L21.1631 32.468H25.2368V35.5793H21.2817Z" fill="#8765DB"/>
</svg>
