<svg width="628" height="356" viewBox="0 0 628 356" fill="none" xmlns="http://www.w3.org/2000/svg">
<path fill-rule="evenodd" clip-rule="evenodd" d="M50.0616 268.869C120.941 272.337 280.964 409.086 445.038 331.29C533.439 289.378 627.711 318.96 627.001 228.141C625.837 77.3346 529.387 24.2529 397.555 72.2608C328.384 97.4524 267.245 -16.9058 191.04 2.15456C115.335 21.0926 140.404 109.111 84.3552 94.3592C-16.9988 67.6881 -25.2408 265.184 50.0616 268.869Z" fill="#F2F5F8"/>
<path fill-rule="evenodd" clip-rule="evenodd" d="M52.3184 19.4355H252.505C258.232 19.4355 263.724 21.7107 267.773 25.7603C271.822 29.8099 274.096 35.3023 274.095 41.0288V292.996C274.095 304.919 264.429 314.585 252.505 314.585H52.3184C46.5919 314.586 41.0995 312.312 37.0499 308.263C33.0002 304.214 30.7251 298.722 30.7251 292.996V41.0249C30.7251 29.0992 40.3928 19.4316 52.3184 19.4316V19.4355Z" fill="#56557E"/>
<path fill-rule="evenodd" clip-rule="evenodd" d="M246.848 289.192H60.9353L54.7922 274.555V55.5835H250.734V274.409L246.848 289.192Z" fill="#E5E8F5"/>
<path fill-rule="evenodd" clip-rule="evenodd" d="M54.7922 40.7606H250.734V274.361H54.8041L54.7922 40.7606Z" fill="white"/>
<path fill-rule="evenodd" clip-rule="evenodd" d="M250.864 134.646H54.7528L52.1882 128.957V43.9839H252.636V129.079L250.864 134.646Z" fill="#D8984D"/>
<path fill-rule="evenodd" clip-rule="evenodd" d="M52.1882 38.1408H252.636V128.807H52.1882V38.1408Z" fill="#F9B25F"/>
<path d="M102.978 78.1079C111.33 78.1079 118.1 71.3372 118.1 62.9851C118.1 54.633 111.33 47.8623 102.978 47.8623C94.6256 47.8623 87.8549 54.633 87.8549 62.9851C87.8549 71.3372 94.6256 78.1079 102.978 78.1079Z" fill="#D8984D"/>
<path fill-rule="evenodd" clip-rule="evenodd" d="M102.978 29.0781C107.924 29.0781 111.934 33.0879 111.934 38.0342V65.5496C111.934 70.496 107.924 74.5058 102.978 74.5058C98.0313 74.5058 94.0215 70.496 94.0215 65.5496V38.0342C94.0215 33.0879 98.0313 29.0781 102.978 29.0781Z" fill="#455A64"/>
<path d="M196.429 78.1079C204.781 78.1079 211.552 71.3372 211.552 62.9851C211.552 54.633 204.781 47.8623 196.429 47.8623C188.077 47.8623 181.306 54.633 181.306 62.9851C181.306 71.3372 188.077 78.1079 196.429 78.1079Z" fill="#D8984D"/>
<path fill-rule="evenodd" clip-rule="evenodd" d="M196.429 29.0781C201.375 29.0781 205.385 33.0879 205.385 38.0342V65.5496C205.385 70.496 201.375 74.5058 196.429 74.5058C191.483 74.5058 187.473 70.496 187.473 65.5496V38.0342C187.473 33.0879 191.483 29.0781 196.429 29.0781Z" fill="#455A64"/>
<path fill-rule="evenodd" clip-rule="evenodd" d="M147.253 254.027H76.8629V240.06L110.083 204.654C114.642 199.672 118.015 195.323 120.203 191.606C122.392 187.89 123.485 184.362 123.482 181.025C123.482 176.464 122.33 172.879 120.026 170.269C117.722 167.66 114.434 166.354 110.162 166.352C105.554 166.352 101.922 167.939 99.265 171.114C96.6084 174.288 95.2801 178.461 95.2801 183.632H74.827C74.7643 177.622 76.3105 171.705 79.3051 166.494C82.2912 161.323 86.681 157.104 91.9659 154.326C97.4238 151.39 103.605 149.921 110.509 149.919C121.091 149.919 129.308 152.458 135.16 157.537C141.013 162.617 143.94 169.788 143.943 179.052C143.943 184.128 142.628 189.301 139.998 194.569C137.367 199.838 132.852 205.973 126.453 212.975L103.108 237.594H147.261L147.253 254.027Z" fill="#37474F"/>
<path d="M228.864 211.566C228.864 225.769 225.925 236.633 220.046 244.155C214.168 251.678 205.563 255.439 194.231 255.439C183.039 255.439 174.48 251.747 168.554 244.364C162.628 236.981 159.604 226.401 159.48 212.623V193.713C159.48 179.37 162.454 168.484 168.401 161.057C174.348 153.629 182.918 149.913 194.113 149.911C205.302 149.911 213.86 153.593 219.786 160.958C225.712 168.323 228.745 178.891 228.884 192.663L228.864 211.566ZM208.478 190.781C208.478 182.262 207.314 176.061 204.987 172.179C202.659 168.296 199.026 166.355 194.089 166.355C189.294 166.355 185.757 168.196 183.476 171.879C181.196 175.561 179.984 181.339 179.842 189.211V214.229C179.842 222.609 180.983 228.835 183.263 232.907C185.543 236.978 189.2 239.014 194.231 239.014C199.216 239.014 202.813 237.06 205.022 233.151C207.231 229.243 208.384 223.265 208.478 215.219V190.781Z" fill="#37474F"/>
<path fill-rule="evenodd" clip-rule="evenodd" d="M130.184 90.0041H135.585V108.153C135.615 109.698 135.233 111.224 134.476 112.572C133.745 113.84 132.661 114.868 131.355 115.531C129.944 116.242 128.382 116.599 126.802 116.573C124.027 116.573 121.867 115.868 120.32 114.458C118.773 113.048 118 111.053 118 108.473H123.433C123.433 109.759 123.704 110.707 124.246 111.317C124.787 111.927 125.64 112.234 126.802 112.237C127.743 112.275 128.65 111.885 129.268 111.175C129.88 110.465 130.184 109.459 130.184 108.149V90.0041Z" fill="white"/>
<path d="M154.61 110.808H145.141L143.342 116.209H137.601L147.358 90H152.361L162.169 116.209H156.425L154.61 110.808ZM146.601 106.433H153.154L149.86 96.6244L146.601 106.433Z" fill="white"/>
<path fill-rule="evenodd" clip-rule="evenodd" d="M185.928 116.213H180.531L170.016 98.968V116.213H164.619V90.004H170.016L180.547 107.285V90.004H185.928V116.213Z" fill="white"/>
<path fill-rule="evenodd" clip-rule="evenodd" d="M617.71 331.641H254.028L211.781 92.7336H575.462L617.71 331.641Z" fill="#E5E8F5"/>
<path fill-rule="evenodd" clip-rule="evenodd" d="M169.482 314.498H533.163L575.414 92.138H211.733L169.482 314.498Z" fill="#56557E"/>
<path fill-rule="evenodd" clip-rule="evenodd" d="M617.71 328.059H254.028L211.781 92.1221H575.462L617.71 328.059Z" fill="white"/>
<path fill-rule="evenodd" clip-rule="evenodd" d="M374.62 303.79L344.923 127.311H340.583L370.28 303.79H374.62Z" fill="#E5E8F5"/>
<path fill-rule="evenodd" clip-rule="evenodd" d="M579.336 113.775L575.462 92.1379H211.781L215.655 113.775H579.336Z" fill="#9499EA"/>
<path fill-rule="evenodd" clip-rule="evenodd" d="M568.952 234.252L568.226 230.074H260.905L261.635 234.252H568.952Z" fill="#E5E8F5"/>
<path fill-rule="evenodd" clip-rule="evenodd" d="M402.747 277.435L423.263 275.624L420.446 251.083L398.9 252.267L402.747 277.435Z" fill="#8765DB"/>
<path fill-rule="evenodd" clip-rule="evenodd" d="M402.017 255.329L413.976 254.484C414.24 254.466 414.493 254.59 414.641 254.809C414.788 255.028 414.808 255.309 414.692 255.547C414.576 255.784 414.342 255.942 414.079 255.96L402.12 256.804C401.924 256.818 401.731 256.754 401.583 256.625C401.435 256.496 401.344 256.314 401.331 256.118C401.317 255.922 401.381 255.729 401.51 255.58C401.639 255.432 401.821 255.342 402.017 255.329Z" fill="white"/>
<path fill-rule="evenodd" clip-rule="evenodd" d="M402.633 259.755L418.691 258.623C418.954 258.604 419.208 258.727 419.356 258.946C419.505 259.165 419.525 259.446 419.41 259.684C419.294 259.921 419.061 260.08 418.797 260.099L402.735 261.231C402.328 261.258 401.976 260.951 401.946 260.544C401.932 260.349 401.997 260.155 402.126 260.007C402.254 259.859 402.437 259.768 402.633 259.755Z" fill="white"/>
<path fill-rule="evenodd" clip-rule="evenodd" d="M418.02 289.504L438.536 287.693L435.719 263.152L414.173 264.336L418.02 289.504Z" fill="#8765DB"/>
<path fill-rule="evenodd" clip-rule="evenodd" d="M266.445 180.764L291.214 178.578L287.813 148.948L261.801 150.396L266.445 180.764Z" fill="#9499EA"/>
<path fill-rule="evenodd" clip-rule="evenodd" d="M300.174 185.222L324.943 183.037L321.546 153.41L295.53 154.854L300.174 185.222Z" fill="#F9B25F"/>
<path fill-rule="evenodd" clip-rule="evenodd" d="M264.835 152.621L279.271 151.603C279.763 151.569 280.19 151.94 280.226 152.432C280.258 152.923 279.888 153.347 279.397 153.383L264.957 154.401C264.466 154.434 264.04 154.063 264.006 153.572C263.973 153.081 264.343 152.655 264.835 152.621Z" fill="white"/>
<path fill-rule="evenodd" clip-rule="evenodd" d="M265.561 157.963L284.953 156.594C285.443 156.563 285.868 156.932 285.903 157.423C285.921 157.659 285.843 157.893 285.688 158.072C285.532 158.252 285.312 158.361 285.075 158.378L265.687 159.743C265.369 159.765 265.063 159.617 264.885 159.353C264.706 159.089 264.682 158.749 264.822 158.463C264.961 158.176 265.243 157.986 265.561 157.963Z" fill="white"/>
<path fill-rule="evenodd" clip-rule="evenodd" d="M266.291 162.576L285.678 161.21C285.915 161.193 286.149 161.271 286.328 161.426C286.507 161.582 286.617 161.802 286.633 162.039C286.651 162.276 286.573 162.509 286.417 162.689C286.262 162.868 286.041 162.978 285.805 162.994L266.417 164.359C265.944 164.363 265.549 163.998 265.516 163.527C265.482 163.055 265.822 162.638 266.291 162.576Z" fill="white"/>
<path fill-rule="evenodd" clip-rule="evenodd" d="M267.02 167.673L286.408 166.304C286.739 166.26 287.066 166.403 287.258 166.675C287.451 166.947 287.476 167.304 287.324 167.6C287.172 167.897 286.868 168.084 286.535 168.087L267.143 169.456C266.671 169.458 266.278 169.093 266.246 168.622C266.213 168.151 266.552 167.736 267.02 167.673Z" fill="white"/>
<path fill-rule="evenodd" clip-rule="evenodd" d="M299.29 158.535L313.731 157.518C314.203 157.516 314.596 157.881 314.628 158.352C314.66 158.823 314.321 159.238 313.853 159.301L299.417 160.319C298.926 160.35 298.502 159.981 298.466 159.49C298.448 159.254 298.526 159.021 298.68 158.842C298.835 158.663 299.054 158.553 299.29 158.535Z" fill="white"/>
<path fill-rule="evenodd" clip-rule="evenodd" d="M300.02 163.878L319.408 162.512C319.645 162.495 319.878 162.573 320.058 162.728C320.237 162.884 320.347 163.104 320.363 163.341C320.379 163.577 320.301 163.81 320.146 163.988C319.99 164.166 319.77 164.276 319.534 164.292L300.146 165.661C299.673 165.665 299.279 165.301 299.245 164.829C299.212 164.357 299.551 163.94 300.02 163.878Z" fill="white"/>
<path fill-rule="evenodd" clip-rule="evenodd" d="M281.642 214.896L306.416 212.71L303.015 183.084L276.999 184.532L281.642 214.896Z" fill="#8765DB"/>
<path fill-rule="evenodd" clip-rule="evenodd" d="M280.763 188.209L295.199 187.195C295.517 187.173 295.823 187.321 296.001 187.585C296.18 187.849 296.204 188.188 296.064 188.475C295.925 188.761 295.643 188.952 295.325 188.974L280.889 189.992C280.416 189.997 280.021 189.632 279.988 189.16C279.954 188.688 280.294 188.272 280.763 188.209Z" fill="white"/>
<path fill-rule="evenodd" clip-rule="evenodd" d="M281.508 193.555L300.9 192.186C301.23 192.142 301.558 192.285 301.75 192.557C301.942 192.829 301.967 193.186 301.815 193.482C301.663 193.779 301.359 193.966 301.026 193.969L281.634 195.334C281.398 195.352 281.165 195.274 280.986 195.118C280.808 194.963 280.699 194.742 280.684 194.506C280.666 194.27 280.743 194.038 280.898 193.859C281.053 193.681 281.272 193.571 281.508 193.555Z" fill="white"/>
<path fill-rule="evenodd" clip-rule="evenodd" d="M282.463 198.412L301.851 197.043C302.087 197.025 302.321 197.103 302.5 197.259C302.68 197.414 302.789 197.635 302.806 197.871C302.839 198.363 302.469 198.79 301.977 198.826L282.585 200.191C282.094 200.225 281.668 199.854 281.634 199.363C281.601 198.871 281.972 198.446 282.463 198.412Z" fill="white"/>
<path fill-rule="evenodd" clip-rule="evenodd" d="M283.433 204.48L302.821 203.115C303.152 203.071 303.479 203.214 303.671 203.486C303.864 203.758 303.889 204.114 303.737 204.411C303.585 204.708 303.281 204.895 302.948 204.898L283.56 206.263C283.323 206.281 283.089 206.203 282.91 206.047C282.731 205.892 282.621 205.671 282.605 205.435C282.588 205.198 282.665 204.964 282.821 204.785C282.976 204.606 283.197 204.496 283.433 204.48Z" fill="white"/>
<path fill-rule="evenodd" clip-rule="evenodd" d="M283.674 209.1L303.066 207.731C303.557 207.699 303.981 208.069 304.017 208.559C304.034 208.796 303.957 209.03 303.801 209.209C303.646 209.388 303.425 209.498 303.188 209.514L283.801 210.883C283.327 210.887 282.933 210.523 282.899 210.051C282.866 209.579 283.205 209.163 283.674 209.1Z" fill="white"/>
<path fill-rule="evenodd" clip-rule="evenodd" d="M281.031 290.131L280.281 289.086L291.218 281.226L303.449 283.4L312.314 276.804L326.316 271.023L326.51 271.063L339.719 273.825L351.859 260.698L352.806 261.57L340.181 275.233L326.458 272.353L312.969 277.924L303.784 284.757L291.553 282.58L281.031 290.131Z" fill="#A25D91"/>
<path opacity="0.1" fill-rule="evenodd" clip-rule="evenodd" d="M282.929 292.12L283.268 289.137L291.467 283.246L303.697 285.424L312.725 278.717L326.47 273.04L340.031 275.888L351.157 263.859L350.916 289.784" fill="#A25D91"/>
<path fill-rule="evenodd" clip-rule="evenodd" d="M344.284 262.458L352.656 261.452L352.013 260.809L351.678 268.175C351.642 269.003 352.924 269.003 352.964 268.175L353.299 260.809C353.299 260.454 353.011 260.166 352.656 260.166L344.284 261.172C343.471 261.266 343.463 262.557 344.284 262.458Z" fill="#A25D91"/>
<path fill-rule="evenodd" clip-rule="evenodd" d="M406.906 202.543C393.625 205.489 380.469 197.114 377.52 183.834L401.587 178.495L406.906 202.543Z" fill="#6FAFD8"/>
<path fill-rule="evenodd" clip-rule="evenodd" d="M411.048 171.263C411.048 171.263 427.99 153.383 428.014 153.391C431.541 156.796 434.008 161.149 435.115 165.925L411.048 171.263Z" fill="#F9B25F"/>
<path fill-rule="evenodd" clip-rule="evenodd" d="M409.51 202.089L404.171 178.046L428.219 172.707C431.165 185.987 422.789 199.141 409.51 202.089Z" fill="#9499EA"/>
<path fill-rule="evenodd" clip-rule="evenodd" d="M401.055 175.532L377.011 180.871C375.595 174.494 376.77 167.816 380.278 162.305C383.786 156.795 389.339 152.904 395.716 151.489C404.002 149.642 412.974 152.428 418.008 157.66C418.02 157.671 401.055 175.532 401.055 175.532Z" fill="#FF6369"/>
<path fill-rule="evenodd" clip-rule="evenodd" d="M127.337 173.062H211.848C219.235 173.062 225.223 179.051 225.223 186.437V315.252C225.223 322.639 219.235 328.627 211.848 328.627H127.337C119.95 328.627 113.962 322.639 113.962 315.252V186.437C113.962 179.051 119.95 173.062 127.337 173.062Z" fill="#9499EA"/>
<path fill-rule="evenodd" clip-rule="evenodd" d="M132.371 182.733H206.802C212.212 182.733 216.598 187.119 216.598 192.529V199.97C216.598 205.381 212.212 209.767 206.802 209.767H132.371C126.961 209.767 122.575 205.381 122.575 199.97V192.529C122.575 187.119 126.961 182.733 132.371 182.733Z" fill="white"/>
<path d="M209.074 211.909H130.114C124.774 211.903 120.447 207.575 120.44 202.235V190.265C120.445 184.923 124.773 180.595 130.114 180.59H209.074C214.414 180.597 218.742 184.924 218.748 190.265V202.235C218.74 207.574 214.413 211.901 209.074 211.909ZM130.114 184.875C127.14 184.879 124.729 187.29 124.725 190.265V202.235C124.729 205.21 127.14 207.62 130.114 207.624H209.074C212.049 207.62 214.459 205.21 214.464 202.235V190.265C214.459 187.29 212.049 184.879 209.074 184.875H130.114Z" fill="#B0C9F1"/>
<path d="M132.655 196.723L132.351 201.355L132.063 201.75L131.002 200.483L131.195 196.834L132.111 196.092L132.655 196.723ZM132.995 190.359C132.916 191.937 132.817 193.476 132.738 195.066L132.174 195.662L131.274 194.987L131.468 191.547L132.912 190.099C132.954 190.18 132.982 190.268 132.995 190.359Z" fill="#37474F"/>
<path d="M136.316 196.869L136.123 200.613L134.644 201.403L134.904 196.514C134.951 196.352 135.078 196.175 135.129 196.017L136.316 196.869ZM140.317 200.886C140.656 201.304 141.027 201.785 141.363 202.203C141.414 202.255 141.442 202.282 141.442 202.318C141.442 202.353 141.394 202.397 141.284 202.397H135.093C134.979 202.251 134.868 202.125 134.754 201.979C134.707 201.931 134.644 201.884 134.644 201.801L136.123 200.901L140.317 200.886ZM142.152 189.906L140.688 191.354H136.589L135.302 190.564L136.38 189.842L142.152 189.906ZM140.4 195.133L141.445 195.95L140.416 196.66H136.431C136.092 196.352 135.709 196.112 135.37 195.839L136.656 195.133H140.4ZM142.408 190.375C142.329 191.953 142.231 193.492 142.152 195.082L141.587 195.678L140.688 195.003L140.881 191.563L142.329 190.115C142.369 190.197 142.396 190.285 142.408 190.375Z" fill="#37474F"/>
<path d="M149.731 200.87C150.066 201.288 150.437 201.769 150.776 202.188C150.824 202.239 150.855 202.267 150.855 202.302C150.855 202.338 150.804 202.381 150.694 202.381H144.507C144.393 202.235 144.282 202.109 144.168 201.963C144.121 201.915 144.057 201.868 144.057 201.785L145.533 200.886L149.731 200.87ZM151.562 189.89L150.098 191.338H145.983L144.697 190.549L145.774 189.827L151.562 189.89ZM149.81 195.117L150.855 195.938L149.826 196.644H145.841C145.505 196.337 145.119 196.096 144.779 195.824L146.066 195.117H149.81ZM151.483 196.723L151.179 201.355L150.887 201.773L149.826 200.503L150.019 196.853L150.934 196.112L151.483 196.723ZM151.818 190.359C151.739 191.937 151.644 193.476 151.562 195.066L151.001 195.662L150.098 194.987L150.291 191.547L151.739 190.099C151.783 190.18 151.809 190.268 151.818 190.359Z" fill="#37474F"/>
<path fill-rule="evenodd" clip-rule="evenodd" d="M153.037 201.868C153.053 202.294 152.728 202.655 152.303 202.685H152.248C152.045 202.68 151.853 202.593 151.714 202.445C151.575 202.296 151.502 202.099 151.51 201.896C151.502 201.686 151.577 201.482 151.719 201.328C151.861 201.174 152.058 201.083 152.268 201.075H152.311C152.509 201.08 152.697 201.164 152.833 201.307C152.969 201.451 153.042 201.643 153.037 201.84V201.868Z" fill="#37474F"/>
<path d="M155.369 191.74L155.176 194.924L153.905 195.678L153.728 195.283L153.984 190.833L155.369 191.74ZM159.176 195.133L160.222 195.954L159.192 196.66H155.207C154.872 196.356 154.485 196.112 154.146 195.839L155.432 195.133H159.176ZM160.849 196.739L160.545 201.371L160.253 201.789L159.196 200.519L159.385 196.869L160.305 196.127L160.849 196.739ZM161.188 190.375C161.11 191.953 161.011 193.492 160.928 195.086L160.368 195.678L159.468 195.003L159.662 191.563L161.106 190.119C161.149 190.198 161.177 190.285 161.188 190.375Z" fill="#37474F"/>
<path d="M168.499 200.87C168.839 201.304 169.225 201.754 169.561 202.188C169.608 202.239 169.639 202.267 169.639 202.302C169.639 202.338 169.576 202.381 169.462 202.381H163.275C163.161 202.251 163.051 202.109 162.936 201.986C162.889 201.923 162.81 201.876 162.81 201.793V201.762L164.289 200.878L168.499 200.87ZM164.771 191.709L164.593 194.904L163.307 195.662L163.149 195.267L163.39 190.829L164.771 191.709ZM170.318 189.874L168.87 191.338H164.787L163.5 190.517L164.562 189.827L170.318 189.874ZM168.566 195.117L169.624 195.938L168.598 196.629H164.613C164.258 196.337 163.903 196.096 163.552 195.839L164.822 195.133L168.566 195.117ZM170.235 196.696L169.931 201.343L169.659 201.762L168.598 200.507L168.807 196.842L169.722 196.084L170.235 196.696Z" fill="#37474F"/>
<path d="M177.905 200.87C178.24 201.304 178.627 201.754 178.962 202.188C179.014 202.239 179.045 202.267 179.045 202.302C179.045 202.338 178.978 202.381 178.868 202.381H172.677L172.342 201.986C172.295 201.923 172.212 201.876 172.212 201.793V201.762L173.691 200.878L177.905 200.87ZM173.9 196.853L173.707 200.598L172.228 201.414L172.484 196.514C172.551 196.352 172.63 196.191 172.693 196.033L173.9 196.853ZM174.173 191.724L173.999 194.92L172.713 195.678L172.551 195.283L172.792 190.845L174.173 191.724ZM179.72 189.89L178.272 191.354H174.192L172.91 190.533L173.968 189.842L179.72 189.89ZM177.968 195.133L179.03 195.954L178 196.644H174.015C173.66 196.352 173.309 196.112 172.954 195.855L174.224 195.149L177.968 195.133ZM179.641 196.711L179.333 201.359L179.061 201.777L178 200.523L178.209 196.857L179.124 196.1L179.641 196.711Z" fill="#37474F"/>
<path fill-rule="evenodd" clip-rule="evenodd" d="M181.231 201.868C181.247 202.294 180.922 202.655 180.497 202.685H180.442C180.239 202.68 180.047 202.593 179.908 202.445C179.769 202.296 179.696 202.099 179.704 201.896C179.696 201.686 179.771 201.482 179.913 201.328C180.055 201.174 180.252 201.083 180.462 201.075H180.505C180.703 201.08 180.891 201.164 181.027 201.307C181.163 201.451 181.236 201.643 181.231 201.84V201.868Z" fill="#37474F"/>
<path d="M189.122 189.89L187.658 191.338H183.559L182.273 190.549L183.35 189.827L189.122 189.89ZM189.043 196.723L188.739 201.355L188.447 201.773L187.386 200.503L187.579 196.853L188.495 196.112L189.043 196.723ZM189.382 190.359C189.303 191.937 189.205 193.476 189.126 195.066L188.562 195.662L187.662 194.987L187.856 191.547L189.3 190.099C189.342 190.18 189.37 190.268 189.382 190.359Z" fill="#37474F"/>
<path d="M192.693 196.869L192.499 200.613L191.02 201.403L191.276 196.514C191.324 196.352 191.454 196.175 191.501 196.017L192.693 196.869ZM196.693 200.886C197.033 201.304 197.403 201.785 197.739 202.203C197.786 202.255 197.818 202.282 197.818 202.318C197.818 202.353 197.77 202.397 197.656 202.397H191.47C191.355 202.251 191.245 202.125 191.13 201.979C191.083 201.931 191.02 201.884 191.02 201.801L192.499 200.901L196.693 200.886ZM192.965 191.74L192.772 194.924L191.501 195.678L191.324 195.283L191.58 190.833L192.965 191.74ZM198.528 189.906L197.076 191.346H192.977L191.691 190.557L192.768 189.835L198.528 189.906ZM196.776 195.133L197.822 195.95L196.792 196.66H192.807C192.468 196.352 192.085 196.112 191.746 195.839L193.032 195.133H196.776ZM198.449 196.739L198.141 201.367L197.853 201.785L196.792 200.519L196.985 196.869L197.901 196.127L198.449 196.739ZM198.784 190.375C198.705 191.953 198.607 193.492 198.528 195.082L197.964 195.678L197.064 195.003L197.257 191.563L198.705 190.115C198.745 190.197 198.772 190.285 198.784 190.375Z" fill="#37474F"/>
<path d="M206.095 200.87C206.434 201.288 206.805 201.769 207.141 202.188C207.192 202.239 207.22 202.267 207.22 202.302C207.22 202.338 207.172 202.381 207.062 202.381H200.871C200.761 202.235 200.647 202.109 200.536 201.963C200.485 201.915 200.422 201.868 200.422 201.785L201.901 200.886L206.095 200.87ZM202.367 191.724L202.173 194.908L200.903 195.662L200.729 195.267L200.986 190.817L202.367 191.724ZM207.93 189.89L206.466 191.338H202.367L201.081 190.549L202.158 189.827L207.93 189.89ZM206.178 195.117L207.224 195.934L206.194 196.644H202.205C201.87 196.337 201.483 196.096 201.144 195.824L202.43 195.117H206.178ZM207.851 196.723L207.543 201.355L207.255 201.75L206.194 200.483L206.387 196.834L207.302 196.092L207.851 196.723ZM208.186 190.359C208.107 191.937 208.013 193.476 207.93 195.066L207.37 195.662L206.466 194.987L206.659 191.547L208.107 190.103C208.148 190.183 208.175 190.27 208.186 190.359Z" fill="#37474F"/>
<path fill-rule="evenodd" clip-rule="evenodd" d="M127.443 285.539H137.035C140.194 285.539 142.755 288.1 142.755 291.26C142.755 294.419 140.194 296.98 137.035 296.98H127.443C124.284 296.98 121.722 294.419 121.722 291.26C121.722 288.1 124.284 285.539 127.443 285.539Z" fill="#F2F5F8"/>
<path fill-rule="evenodd" clip-rule="evenodd" d="M152.568 285.539H162.159C165.319 285.539 167.88 288.1 167.88 291.26C167.88 294.419 165.319 296.98 162.159 296.98H152.568C149.408 296.98 146.847 294.419 146.847 291.26C146.847 288.1 149.408 285.539 152.568 285.539Z" fill="#F2F5F8"/>
<path fill-rule="evenodd" clip-rule="evenodd" d="M162.159 306.836H127.439C124.286 306.845 121.731 309.399 121.722 312.553C121.731 315.707 124.285 318.263 127.439 318.274H162.159C165.314 318.265 167.869 315.708 167.876 312.553C167.867 309.399 165.313 306.845 162.159 306.836Z" fill="#F2F5F8"/>
<path fill-rule="evenodd" clip-rule="evenodd" d="M212.14 306.836H177.42C174.266 306.845 171.712 309.399 171.703 312.553C171.712 315.707 174.266 318.263 177.42 318.274H212.14C215.294 318.263 217.848 315.707 217.857 312.553C217.848 309.399 215.293 306.845 212.14 306.836Z" fill="#B0C9F1"/>
<path fill-rule="evenodd" clip-rule="evenodd" d="M177.487 285.539H187.078C190.238 285.539 192.799 288.1 192.799 291.26C192.799 294.419 190.238 296.98 187.078 296.98H177.487C174.327 296.98 171.766 294.419 171.766 291.26C171.766 288.1 174.327 285.539 177.487 285.539Z" fill="#F2F5F8"/>
<path fill-rule="evenodd" clip-rule="evenodd" d="M203.925 285.539H213.517C216.676 285.539 219.237 288.1 219.237 291.26C219.237 294.419 216.676 296.98 213.517 296.98H203.925C200.766 296.98 198.204 294.419 198.204 291.26C198.204 288.1 200.766 285.539 203.925 285.539Z" fill="#B0C9F1"/>
<path fill-rule="evenodd" clip-rule="evenodd" d="M127.443 265.958H137.035C140.194 265.958 142.755 268.519 142.755 271.678C142.755 274.838 140.194 277.399 137.035 277.399H127.443C124.284 277.399 121.722 274.838 121.722 271.678C121.722 268.519 124.284 265.958 127.443 265.958Z" fill="#F2F5F8"/>
<path fill-rule="evenodd" clip-rule="evenodd" d="M152.568 265.958H162.159C165.319 265.958 167.88 268.519 167.88 271.678C167.88 274.838 165.319 277.399 162.159 277.399H152.568C149.408 277.399 146.847 274.838 146.847 271.678C146.847 268.519 149.408 265.958 152.568 265.958Z" fill="#F2F5F8"/>
<path fill-rule="evenodd" clip-rule="evenodd" d="M177.487 265.958H187.078C190.238 265.958 192.799 268.519 192.799 271.678C192.799 274.838 190.238 277.399 187.078 277.399H177.487C174.327 277.399 171.766 274.838 171.766 271.678C171.766 268.519 174.327 265.958 177.487 265.958Z" fill="#F2F5F8"/>
<path fill-rule="evenodd" clip-rule="evenodd" d="M203.925 265.958H213.517C216.676 265.958 219.237 268.519 219.237 271.678C219.237 274.838 216.676 277.399 213.517 277.399H203.925C200.766 277.399 198.204 274.838 198.204 271.678C198.204 268.519 200.766 265.958 203.925 265.958Z" fill="#B0C9F1"/>
<path fill-rule="evenodd" clip-rule="evenodd" d="M127.443 245.24H137.035C140.194 245.24 142.755 247.801 142.755 250.961C142.755 254.121 140.194 256.682 137.035 256.682H127.443C124.284 256.682 121.722 254.121 121.722 250.961C121.722 247.801 124.284 245.24 127.443 245.24Z" fill="#F2F5F8"/>
<path fill-rule="evenodd" clip-rule="evenodd" d="M152.568 245.24H162.159C165.319 245.24 167.88 247.801 167.88 250.961C167.88 254.121 165.319 256.682 162.159 256.682H152.568C149.408 256.682 146.847 254.121 146.847 250.961C146.847 247.801 149.408 245.24 152.568 245.24Z" fill="#F2F5F8"/>
<path fill-rule="evenodd" clip-rule="evenodd" d="M177.487 245.24H187.078C190.238 245.24 192.799 247.801 192.799 250.961C192.799 254.121 190.238 256.682 187.078 256.682H177.487C174.327 256.682 171.766 254.121 171.766 250.961C171.766 247.801 174.327 245.24 177.487 245.24Z" fill="#F2F5F8"/>
<path fill-rule="evenodd" clip-rule="evenodd" d="M203.925 245.24H213.517C216.676 245.24 219.237 247.801 219.237 250.961C219.237 254.121 216.676 256.682 213.517 256.682H203.925C200.766 256.682 198.204 254.121 198.204 250.961C198.204 247.801 200.766 245.24 203.925 245.24Z" fill="#B0C9F1"/>
<path fill-rule="evenodd" clip-rule="evenodd" d="M127.443 225.47H137.035C140.194 225.47 142.755 228.031 142.755 231.19C142.755 234.35 140.194 236.911 137.035 236.911H127.443C124.284 236.911 121.722 234.35 121.722 231.19C121.722 228.031 124.284 225.47 127.443 225.47Z" fill="#B0C9F1"/>
<path fill-rule="evenodd" clip-rule="evenodd" d="M152.568 225.47H162.159C165.319 225.47 167.88 228.031 167.88 231.19C167.88 234.35 165.319 236.911 162.159 236.911H152.568C149.408 236.911 146.847 234.35 146.847 231.19C146.847 228.031 149.408 225.47 152.568 225.47Z" fill="#B0C9F1"/>
<path fill-rule="evenodd" clip-rule="evenodd" d="M177.487 225.47H187.078C190.238 225.47 192.799 228.031 192.799 231.19C192.799 234.35 190.238 236.911 187.078 236.911H177.487C174.327 236.911 171.766 234.35 171.766 231.19C171.766 228.031 174.327 225.47 177.487 225.47Z" fill="#B0C9F1"/>
<path fill-rule="evenodd" clip-rule="evenodd" d="M203.925 225.47H213.517C216.676 225.47 219.237 228.031 219.237 231.19C219.237 234.35 216.676 236.911 213.517 236.911H203.925C200.766 236.911 198.204 234.35 198.204 231.19C198.204 228.031 200.766 225.47 203.925 225.47Z" fill="#B0C9F1"/>
</svg>
