<svg width="268" height="42" viewBox="0 0 268 42" fill="none" xmlns="http://www.w3.org/2000/svg">
<path d="M6.834 19.89H13.77C14.79 19.89 15.64 19.6067 16.32 19.04C17 18.4507 17.34 17.612 17.34 16.524C17.34 15.3 17.034 14.4387 16.422 13.94C15.81 13.4413 14.926 13.192 13.77 13.192H6.834V19.89ZM2.584 9.724H14.382C16.558 9.724 18.3033 10.2227 19.618 11.22C20.9327 12.2173 21.59 13.7247 21.59 15.742C21.59 16.966 21.284 18.02 20.672 18.904C20.0827 19.7653 19.2327 20.434 18.122 20.91V20.978C19.618 21.2953 20.7513 22.0093 21.522 23.12C22.2927 24.208 22.678 25.5793 22.678 27.234C22.678 28.186 22.508 29.0813 22.168 29.92C21.828 30.736 21.2953 31.45 20.57 32.062C19.8447 32.6513 18.9153 33.1273 17.782 33.49C16.6487 33.83 15.3 34 13.736 34H2.584V9.724ZM6.834 30.532H14.348C15.64 30.532 16.6373 30.2033 17.34 29.546C18.0653 28.866 18.428 27.914 18.428 26.69C18.428 25.4887 18.0653 24.5707 17.34 23.936C16.6373 23.2787 15.64 22.95 14.348 22.95H6.834V30.532ZM41.4155 34H37.6075V31.552H37.5395C37.0635 32.436 36.3495 33.15 35.3975 33.694C34.4681 34.2153 33.5161 34.476 32.5415 34.476C30.2295 34.476 28.5521 33.9093 27.5095 32.776C26.4895 31.62 25.9795 29.886 25.9795 27.574V16.422H29.8555V27.2C29.8555 28.7413 30.1501 29.8293 30.7395 30.464C31.3288 31.0987 32.1561 31.416 33.2215 31.416C34.0375 31.416 34.7175 31.2913 35.2615 31.042C35.8055 30.7927 36.2475 30.464 36.5875 30.056C36.9275 29.6253 37.1655 29.1153 37.3015 28.526C37.4601 27.9367 37.5395 27.302 37.5395 26.622V16.422H41.4155V34ZM62.0609 34H58.3889V31.62H58.3209C57.7996 32.64 57.0402 33.3767 56.0429 33.83C55.0456 34.2607 53.9916 34.476 52.8809 34.476C51.4982 34.476 50.2856 34.238 49.2429 33.762C48.2229 33.2633 47.3729 32.5947 46.6929 31.756C46.0129 30.9173 45.5029 29.9313 45.1629 28.798C44.8229 27.642 44.6529 26.4067 44.6529 25.092C44.6529 23.5053 44.8682 22.134 45.2989 20.978C45.7296 19.822 46.2962 18.87 46.9989 18.122C47.7242 17.374 48.5402 16.83 49.4469 16.49C50.3762 16.1273 51.3169 15.946 52.2689 15.946C52.8129 15.946 53.3682 16.0027 53.9349 16.116C54.5016 16.2067 55.0456 16.3653 55.5669 16.592C56.0882 16.8187 56.5642 17.1133 56.9949 17.476C57.4482 17.816 57.8222 18.224 58.1169 18.7H58.1849V9.724H62.0609V34ZM48.5289 25.398C48.5289 26.146 48.6196 26.8827 48.8009 27.608C49.0049 28.3333 49.2996 28.9793 49.6849 29.546C50.0929 30.1127 50.6029 30.566 51.2149 30.906C51.8269 31.246 52.5522 31.416 53.3909 31.416C54.2522 31.416 54.9889 31.2347 55.6009 30.872C56.2356 30.5093 56.7456 30.0333 57.1309 29.444C57.5389 28.8547 57.8336 28.1973 58.0149 27.472C58.2189 26.724 58.3209 25.9647 58.3209 25.194C58.3209 23.2447 57.8789 21.726 56.9949 20.638C56.1336 19.55 54.9549 19.006 53.4589 19.006C52.5522 19.006 51.7816 19.1987 51.1469 19.584C50.5349 19.9467 50.0249 20.434 49.6169 21.046C49.2316 21.6353 48.9482 22.3153 48.7669 23.086C48.6082 23.834 48.5289 24.6047 48.5289 25.398ZM82.54 33.082C82.54 35.734 81.792 37.706 80.296 38.998C78.8227 40.3127 76.692 40.97 73.904 40.97C73.02 40.97 72.1247 40.8793 71.218 40.698C70.334 40.5167 69.518 40.2107 68.77 39.78C68.0447 39.3493 67.4327 38.7827 66.934 38.08C66.4354 37.3773 66.1407 36.516 66.05 35.496H69.926C70.0394 36.04 70.232 36.482 70.504 36.822C70.776 37.162 71.0934 37.4227 71.456 37.604C71.8414 37.808 72.2607 37.9327 72.714 37.978C73.1674 38.046 73.6434 38.08 74.142 38.08C75.706 38.08 76.8507 37.6947 77.576 36.924C78.3014 36.1533 78.664 35.0427 78.664 33.592V30.906H78.596C78.052 31.8807 77.304 32.64 76.352 33.184C75.4227 33.728 74.414 34 73.326 34C71.9207 34 70.7194 33.762 69.722 33.286C68.7474 32.7873 67.9314 32.1187 67.274 31.28C66.6394 30.4187 66.1747 29.4327 65.88 28.322C65.5854 27.2113 65.438 26.0213 65.438 24.752C65.438 23.5733 65.6194 22.4513 65.982 21.386C66.3447 20.3207 66.866 19.3913 67.546 18.598C68.226 17.782 69.0534 17.136 70.028 16.66C71.0254 16.184 72.1474 15.946 73.394 15.946C74.5047 15.946 75.5247 16.184 76.454 16.66C77.3834 17.1133 78.0974 17.8387 78.596 18.836H78.664V16.422H82.54V33.082ZM73.938 30.94C74.7994 30.94 75.5247 30.77 76.114 30.43C76.726 30.0673 77.2134 29.6027 77.576 29.036C77.9614 28.4467 78.2334 27.7893 78.392 27.064C78.5734 26.316 78.664 25.568 78.664 24.82C78.664 24.072 78.5734 23.3467 78.392 22.644C78.2107 21.9413 77.9274 21.318 77.542 20.774C77.1794 20.23 76.692 19.7993 76.08 19.482C75.4907 19.1647 74.7767 19.006 73.938 19.006C73.0767 19.006 72.3514 19.1873 71.762 19.55C71.1727 19.9127 70.6967 20.3887 70.334 20.978C69.9714 21.5447 69.7107 22.202 69.552 22.95C69.3934 23.6753 69.314 24.4007 69.314 25.126C69.314 25.8513 69.4047 26.5653 69.586 27.268C69.7674 27.948 70.0394 28.56 70.402 29.104C70.7874 29.648 71.2634 30.09 71.83 30.43C72.4194 30.77 73.122 30.94 73.938 30.94ZM98.5123 23.664C98.467 23.052 98.331 22.4627 98.1043 21.896C97.9003 21.3293 97.6057 20.842 97.2203 20.434C96.8577 20.0033 96.4043 19.6633 95.8603 19.414C95.339 19.142 94.7497 19.006 94.0923 19.006C93.4123 19.006 92.789 19.1307 92.2223 19.38C91.6783 19.6067 91.2023 19.9353 90.7943 20.366C90.409 20.774 90.0917 21.2613 89.8423 21.828C89.6157 22.3947 89.491 23.0067 89.4683 23.664H98.5123ZM89.4683 26.214C89.4683 26.894 89.559 27.5513 89.7403 28.186C89.9443 28.8207 90.239 29.376 90.6243 29.852C91.0097 30.328 91.497 30.7133 92.0863 31.008C92.6757 31.28 93.3783 31.416 94.1943 31.416C95.3277 31.416 96.2343 31.178 96.9143 30.702C97.617 30.2033 98.1383 29.4667 98.4783 28.492H102.15C101.946 29.444 101.595 30.294 101.096 31.042C100.598 31.79 99.997 32.4247 99.2943 32.946C98.5917 33.4447 97.7983 33.8187 96.9143 34.068C96.053 34.34 95.1463 34.476 94.1943 34.476C92.8117 34.476 91.5877 34.2493 90.5223 33.796C89.457 33.3427 88.5503 32.708 87.8023 31.892C87.077 31.076 86.5217 30.1013 86.1363 28.968C85.7737 27.8347 85.5923 26.588 85.5923 25.228C85.5923 23.9813 85.785 22.8027 86.1703 21.692C86.5783 20.5587 87.145 19.5727 87.8703 18.734C88.6183 17.8727 89.5137 17.1927 90.5563 16.694C91.599 16.1953 92.7777 15.946 94.0923 15.946C95.475 15.946 96.7103 16.2407 97.7983 16.83C98.909 17.3967 99.827 18.156 100.552 19.108C101.278 20.06 101.799 21.1593 102.116 22.406C102.456 23.63 102.547 24.8993 102.388 26.214H89.4683ZM103.567 16.422H106.491V11.152H110.367V16.422H113.869V19.312H110.367V28.696C110.367 29.104 110.378 29.4553 110.401 29.75C110.446 30.0447 110.526 30.294 110.639 30.498C110.775 30.702 110.968 30.8607 111.217 30.974C111.466 31.0647 111.806 31.11 112.237 31.11C112.509 31.11 112.781 31.11 113.053 31.11C113.325 31.0873 113.597 31.042 113.869 30.974V33.966C113.438 34.0113 113.019 34.0567 112.611 34.102C112.203 34.1473 111.784 34.17 111.353 34.17C110.333 34.17 109.506 34.0793 108.871 33.898C108.259 33.694 107.772 33.4107 107.409 33.048C107.069 32.6627 106.831 32.1867 106.695 31.62C106.582 31.0533 106.514 30.4073 106.491 29.682V19.312H103.567V16.422Z" fill="#56557E"/>
<path d="M120.601 25.942H115.433C115.411 27.438 115.683 28.73 116.249 29.818C116.816 30.906 117.575 31.8013 118.527 32.504C119.502 33.2067 120.613 33.7167 121.859 34.034C123.129 34.374 124.432 34.544 125.769 34.544C127.424 34.544 128.875 34.3513 130.121 33.966C131.391 33.5807 132.445 33.048 133.283 32.368C134.145 31.6653 134.791 30.838 135.221 29.886C135.652 28.934 135.867 27.9027 135.867 26.792C135.867 25.432 135.573 24.3213 134.983 23.46C134.417 22.576 133.737 21.8733 132.943 21.352C132.15 20.8307 131.345 20.4567 130.529 20.23C129.736 19.9807 129.113 19.8107 128.659 19.72C127.141 19.3347 125.905 19.0173 124.953 18.768C124.024 18.5187 123.287 18.2693 122.743 18.02C122.222 17.7707 121.871 17.4987 121.689 17.204C121.508 16.9093 121.417 16.524 121.417 16.048C121.417 15.5267 121.531 15.096 121.757 14.756C121.984 14.416 122.267 14.1327 122.607 13.906C122.97 13.6793 123.367 13.5207 123.797 13.43C124.228 13.3393 124.659 13.294 125.089 13.294C125.747 13.294 126.347 13.3507 126.891 13.464C127.458 13.5773 127.957 13.77 128.387 14.042C128.818 14.314 129.158 14.688 129.407 15.164C129.679 15.64 129.838 16.2407 129.883 16.966H135.051C135.051 15.5607 134.779 14.3707 134.235 13.396C133.714 12.3987 133 11.5827 132.093 10.948C131.187 10.3133 130.144 9.86 128.965 9.588C127.809 9.29333 126.597 9.146 125.327 9.146C124.239 9.146 123.151 9.29333 122.063 9.588C120.975 9.88267 120.001 10.336 119.139 10.948C118.278 11.56 117.575 12.3307 117.031 13.26C116.51 14.1667 116.249 15.2433 116.249 16.49C116.249 17.6007 116.453 18.5527 116.861 19.346C117.292 20.1167 117.847 20.7627 118.527 21.284C119.207 21.8053 119.978 22.236 120.839 22.576C121.701 22.8933 122.585 23.1653 123.491 23.392C124.375 23.6413 125.248 23.868 126.109 24.072C126.971 24.276 127.741 24.514 128.421 24.786C129.101 25.058 129.645 25.398 130.053 25.806C130.484 26.214 130.699 26.7467 130.699 27.404C130.699 28.016 130.541 28.526 130.223 28.934C129.906 29.3193 129.509 29.6253 129.033 29.852C128.557 30.0787 128.047 30.2373 127.503 30.328C126.959 30.396 126.449 30.43 125.973 30.43C125.271 30.43 124.591 30.3507 123.933 30.192C123.276 30.0107 122.698 29.75 122.199 29.41C121.723 29.0473 121.338 28.5827 121.043 28.016C120.749 27.4493 120.601 26.758 120.601 25.942ZM138.669 16.422V34H143.497V23.8C143.497 22.9387 143.622 22.2473 143.871 21.726C144.121 21.182 144.415 20.774 144.755 20.502C145.118 20.2073 145.481 20.0147 145.843 19.924C146.229 19.8107 146.535 19.754 146.761 19.754C147.532 19.754 148.11 19.89 148.495 20.162C148.903 20.4113 149.187 20.7513 149.345 21.182C149.527 21.6127 149.629 22.0887 149.651 22.61C149.674 23.1087 149.685 23.6187 149.685 24.14V34H154.513V24.208C154.513 23.664 154.547 23.1313 154.615 22.61C154.706 22.066 154.865 21.59 155.091 21.182C155.341 20.7513 155.669 20.4113 156.077 20.162C156.508 19.89 157.063 19.754 157.743 19.754C158.423 19.754 158.956 19.8673 159.341 20.094C159.749 20.3207 160.055 20.6267 160.259 21.012C160.463 21.3973 160.588 21.8507 160.633 22.372C160.679 22.8933 160.701 23.4487 160.701 24.038V34H165.529V22.236C165.529 21.1027 165.371 20.1393 165.053 19.346C164.736 18.53 164.294 17.8727 163.727 17.374C163.161 16.8753 162.481 16.5127 161.687 16.286C160.894 16.0593 160.033 15.946 159.103 15.946C157.879 15.946 156.814 16.2407 155.907 16.83C155.023 17.4193 154.321 18.0993 153.799 18.87C153.323 17.782 152.621 17.0227 151.691 16.592C150.785 16.1613 149.776 15.946 148.665 15.946C147.509 15.946 146.478 16.1953 145.571 16.694C144.687 17.1927 143.928 17.8953 143.293 18.802H143.225V16.422H138.669ZM169.142 21.828C169.21 20.6947 169.493 19.754 169.992 19.006C170.49 18.258 171.125 17.6573 171.896 17.204C172.666 16.7507 173.528 16.4333 174.48 16.252C175.454 16.048 176.429 15.946 177.404 15.946C178.288 15.946 179.183 16.014 180.09 16.15C180.996 16.2633 181.824 16.5013 182.572 16.864C183.32 17.2267 183.932 17.7367 184.408 18.394C184.884 19.0287 185.122 19.8787 185.122 20.944V30.09C185.122 30.8833 185.167 31.6427 185.258 32.368C185.348 33.0933 185.507 33.6373 185.734 34H180.838C180.747 33.728 180.668 33.456 180.6 33.184C180.554 32.8893 180.52 32.5947 180.498 32.3C179.727 33.0933 178.82 33.6487 177.778 33.966C176.735 34.2833 175.67 34.442 174.582 34.442C173.743 34.442 172.961 34.34 172.236 34.136C171.51 33.932 170.876 33.6147 170.332 33.184C169.788 32.7533 169.357 32.2093 169.04 31.552C168.745 30.8947 168.598 30.1127 168.598 29.206C168.598 28.2087 168.768 27.3927 169.108 26.758C169.47 26.1007 169.924 25.5793 170.468 25.194C171.034 24.8087 171.669 24.5253 172.372 24.344C173.097 24.14 173.822 23.9813 174.548 23.868C175.273 23.7547 175.987 23.664 176.69 23.596C177.392 23.528 178.016 23.426 178.56 23.29C179.104 23.154 179.534 22.9613 179.852 22.712C180.169 22.44 180.316 22.0547 180.294 21.556C180.294 21.0347 180.203 20.6267 180.022 20.332C179.863 20.0147 179.636 19.7767 179.342 19.618C179.07 19.4367 178.741 19.3233 178.356 19.278C177.993 19.21 177.596 19.176 177.166 19.176C176.214 19.176 175.466 19.38 174.922 19.788C174.378 20.196 174.06 20.876 173.97 21.828H169.142ZM180.294 25.398C180.09 25.5793 179.829 25.7267 179.512 25.84C179.217 25.9307 178.888 26.01 178.526 26.078C178.186 26.146 177.823 26.2027 177.438 26.248C177.052 26.2933 176.667 26.35 176.282 26.418C175.919 26.486 175.556 26.5767 175.194 26.69C174.854 26.8033 174.548 26.962 174.276 27.166C174.026 27.3473 173.822 27.5853 173.664 27.88C173.505 28.1747 173.426 28.5487 173.426 29.002C173.426 29.4327 173.505 29.7953 173.664 30.09C173.822 30.3847 174.038 30.6227 174.31 30.804C174.582 30.9627 174.899 31.076 175.262 31.144C175.624 31.212 175.998 31.246 176.384 31.246C177.336 31.246 178.072 31.0873 178.594 30.77C179.115 30.4527 179.5 30.0787 179.75 29.648C179.999 29.1947 180.146 28.7413 180.192 28.288C180.26 27.8347 180.294 27.472 180.294 27.2V25.398ZM188.869 16.422V34H193.697V26.078C193.697 25.2847 193.777 24.548 193.935 23.868C194.094 23.188 194.355 22.5987 194.717 22.1C195.103 21.5787 195.601 21.1707 196.213 20.876C196.825 20.5813 197.573 20.434 198.457 20.434C198.752 20.434 199.058 20.4567 199.375 20.502C199.693 20.5247 199.965 20.5587 200.191 20.604V16.116C199.806 16.0027 199.455 15.946 199.137 15.946C198.525 15.946 197.936 16.0367 197.369 16.218C196.803 16.3993 196.27 16.66 195.771 17C195.273 17.3173 194.831 17.714 194.445 18.19C194.06 18.6433 193.754 19.142 193.527 19.686H193.459V16.422H188.869ZM208.204 16.422V11.152H203.376V16.422H200.452V19.652H203.376V30.022C203.376 30.906 203.523 31.62 203.818 32.164C204.113 32.708 204.509 33.1273 205.008 33.422C205.529 33.7167 206.119 33.9093 206.776 34C207.456 34.1133 208.17 34.17 208.918 34.17C209.394 34.17 209.881 34.1587 210.38 34.136C210.879 34.1133 211.332 34.068 211.74 34V30.26C211.513 30.3053 211.275 30.3393 211.026 30.362C210.777 30.3847 210.516 30.396 210.244 30.396C209.428 30.396 208.884 30.26 208.612 29.988C208.34 29.716 208.204 29.172 208.204 28.356V19.652H211.74V16.422H208.204Z" fill="#F9B25F"/>
</svg>
