<svg width="54" height="54" viewBox="0 0 54 54" fill="none" xmlns="http://www.w3.org/2000/svg">
<g clip-path="url(#clip0)">
<path d="M47.6172 28.358C46.2394 26.2112 44.2984 24.4933 42.0039 23.3903C41.4788 23.1378 40.8486 23.3589 40.5963 23.8839C40.3439 24.4089 40.5649 25.039 41.0899 25.2914C45.0883 27.2134 47.6718 31.3203 47.6718 35.7539C47.6718 37.6511 47.2041 39.5326 46.3196 41.1952C46.046 41.7093 46.241 42.3481 46.7553 42.6216C46.9131 42.7056 47.0826 42.7455 47.2497 42.7455C47.6271 42.7455 47.9921 42.5423 48.1817 42.1859C49.2281 40.2196 49.7812 37.9954 49.7812 35.7539C49.7812 33.1215 49.0329 30.5639 47.6172 28.358Z" fill="#FF6369"/>
<path d="M37.7232 22.0431L37.6522 22.043C37.0698 22.043 36.5975 22.5152 36.5975 23.0977C36.5975 23.6802 37.0698 24.1524 37.6522 24.1524L37.7133 24.1525C37.715 24.1525 37.7166 24.1525 37.7184 24.1525C38.2985 24.1525 38.7702 23.6836 38.7729 23.1028C38.7756 22.5203 38.3056 22.0459 37.7232 22.0431Z" fill="#FF6369"/>
<path d="M31.0508 46.2165C27.0524 44.2944 24.469 40.1875 24.469 35.7539C24.469 33.8568 24.9366 31.9753 25.8212 30.3127C26.0948 29.7986 25.8998 29.1598 25.3855 28.8863C24.8715 28.6127 24.2325 28.8077 23.959 29.3219C22.9127 31.2884 22.3596 33.5125 22.3596 35.7539C22.3596 38.3864 23.1079 40.9438 24.5236 43.1499C25.9014 45.2967 27.8424 47.0146 30.1369 48.1177C30.2842 48.1886 30.4399 48.222 30.5931 48.222C30.9859 48.222 31.3628 48.0017 31.5444 47.6241C31.7966 47.0991 31.5758 46.4689 31.0508 46.2165Z" fill="#FF6369"/>
<path d="M34.4884 47.3555L34.4274 47.3553C33.8422 47.3542 33.3706 47.8224 33.3679 48.405C33.3652 48.9875 33.8354 49.4619 34.4178 49.4646L34.4884 49.4649C35.0708 49.4649 35.5431 48.9926 35.5431 48.4102C35.5431 47.8278 35.0708 47.3555 34.4884 47.3555Z" fill="#FF6369"/>
<path d="M40.8595 18.4747C40.7311 18.1689 40.5739 17.8806 40.3909 17.6132H43.1366C45.8117 17.6132 47.9882 15.4368 47.9882 12.7617C47.9882 10.0866 45.8117 7.91014 43.1366 7.91014H34.6907C35.2277 7.12946 35.5429 6.18499 35.5429 5.16796C35.5429 2.49286 33.3665 0.316406 30.6913 0.316406H4.85155C2.17645 0.316406 0 2.49286 0 5.16796C0 7.84306 2.17645 10.0195 4.85155 10.0195H13.2975C12.7605 10.8002 12.4453 11.7447 12.4453 12.7617C12.4453 13.7787 12.7604 14.7232 13.2975 15.5039H10.5469C7.87175 15.5039 5.6953 17.6803 5.6953 20.3554C5.6953 21.8918 6.41396 23.2628 7.53204 24.1523C6.41396 25.0418 5.6953 26.4128 5.6953 27.9492C5.6953 29.4855 6.41396 30.8565 7.53204 31.746C6.41396 32.6356 5.6953 34.0065 5.6953 35.5429C5.6953 37.0793 6.41396 38.4502 7.53204 39.3398C6.41396 40.2293 5.6953 41.6003 5.6953 43.1366C5.6953 45.8117 7.87175 47.9882 10.5469 47.9882H22.9763C26.2507 51.4905 30.9088 53.6836 36.0704 53.6836C45.9568 53.6836 54 45.6404 54 35.7539C54 27.5256 48.4281 20.5751 40.8595 18.4747ZM43.1366 10.0195C44.6487 10.0195 45.8788 11.2497 45.8788 12.7617C45.8788 14.2737 44.6487 15.5039 43.1366 15.5039H36.3867H17.2968C15.7847 15.5039 14.5547 14.2737 14.5547 12.7617C14.5547 11.2497 15.7847 10.0195 17.2968 10.0195H43.1366ZM4.85155 7.91014C3.33945 7.91014 2.10937 6.67996 2.10937 5.16796C2.10937 3.65596 3.33945 2.42578 4.85155 2.42578H30.6913C32.2034 2.42578 33.4335 3.65596 33.4335 5.16796C33.4335 6.67996 32.2034 7.91014 30.6913 7.91014H4.85155ZM10.5469 17.6132H36.3867C36.8115 17.6132 37.2183 17.712 37.5832 17.8887C37.0843 17.8469 36.58 17.8243 36.0704 17.8243C31.1191 17.8243 26.6304 19.8418 23.3826 23.0976H10.5469C9.03486 23.0976 7.80467 21.8674 7.80467 20.3554C7.80467 18.8434 9.03486 17.6132 10.5469 17.6132ZM10.5469 25.207H21.5804C20.3832 26.8473 19.4575 28.6975 18.8696 30.6913H10.5469C9.03475 30.6913 7.80467 29.4613 7.80467 27.9492C7.80467 26.4372 9.03475 25.207 10.5469 25.207ZM10.5469 32.8007H18.3853C18.2253 33.7619 18.1407 34.7481 18.1407 35.7539C18.1407 36.6131 18.2028 37.4579 18.3202 38.2851H10.5469C9.03475 38.2851 7.80467 37.055 7.80467 35.5429C7.80467 34.0308 9.03475 32.8007 10.5469 32.8007ZM10.5469 45.8788C9.03475 45.8788 7.80467 44.6487 7.80467 43.1366C7.80467 41.6245 9.03475 40.3945 10.5469 40.3945H18.7508C19.283 42.3786 20.1476 44.2278 21.2813 45.8788H10.5469ZM36.0704 51.5742C27.347 51.5742 20.2501 44.4772 20.2501 35.7539C20.2501 27.0306 27.347 19.9337 36.0704 19.9337C44.7937 19.9337 51.8906 27.0306 51.8906 35.7539C51.8906 44.4772 44.7937 51.5742 36.0704 51.5742Z" fill="#FF6369"/>
<path d="M30.528 35.608C30.528 35.4173 30.5867 35.256 30.704 35.124C30.8213 34.992 30.9863 34.926 31.199 34.926H32.673V32.055C32.673 31.3657 32.772 30.7203 32.97 30.119C33.168 29.5103 33.4687 28.9823 33.872 28.535C34.2753 28.0803 34.774 27.7247 35.368 27.468C35.9693 27.204 36.6733 27.072 37.48 27.072C38.052 27.072 38.5617 27.1453 39.009 27.292C39.4563 27.4313 39.8523 27.6257 40.197 27.875C40.5417 28.1243 40.8387 28.414 41.088 28.744C41.3447 29.074 41.561 29.4297 41.737 29.811L40.945 30.317C40.7543 30.4123 40.5747 30.4527 40.406 30.438C40.2447 30.4233 40.0907 30.3317 39.944 30.163C39.8047 29.965 39.658 29.7817 39.504 29.613C39.3573 29.4443 39.1887 29.2977 38.998 29.173C38.8073 29.041 38.5873 28.9383 38.338 28.865C38.096 28.7917 37.81 28.755 37.48 28.755C37.018 28.755 36.611 28.832 36.259 28.986C35.9143 29.14 35.6247 29.36 35.39 29.646C35.1553 29.932 34.9793 30.2767 34.862 30.68C34.7447 31.0833 34.686 31.5343 34.686 32.033V34.926H39.526V35.718C39.526 35.85 39.471 35.971 39.361 36.081C39.2583 36.191 39.1227 36.246 38.954 36.246H34.686V38.919C34.686 39.469 34.5797 39.9457 34.367 40.349C34.1617 40.745 33.8757 41.108 33.509 41.438C33.7143 41.4013 33.9233 41.372 34.136 41.35C34.3487 41.3207 34.5613 41.306 34.774 41.306H42.221V42.142C42.221 42.2447 42.199 42.3473 42.155 42.45C42.1183 42.5453 42.0597 42.637 41.979 42.725C41.9057 42.8057 41.8177 42.8717 41.715 42.923C41.6123 42.9743 41.495 43 41.363 43H30.759V41.735C31.0083 41.6617 31.2467 41.5627 31.474 41.438C31.7087 41.3133 31.914 41.1593 32.09 40.976C32.266 40.7853 32.4053 40.5653 32.508 40.316C32.618 40.0593 32.673 39.7623 32.673 39.425V36.246H30.528V35.608Z" fill="#FF6369"/>
</g>
<defs>
<clipPath id="clip0">
<rect width="54" height="54" fill="white"/>
</clipPath>
</defs>
</svg>
