<svg width="54" height="54" viewBox="0 0 54 54" fill="none" xmlns="http://www.w3.org/2000/svg">
<g clip-path="url(#clip0)">
<path d="M14.9278 9.0255C15.2941 10.0857 16.2815 10.7986 17.3849 10.7986H24.073C25.1765 10.7986 26.1638 10.0857 26.5301 9.0255C26.8793 8.01207 27.9765 5.74489 28.8279 5.02487C29.574 4.39215 29.9241 3.41201 29.7405 2.46698C29.5605 1.53725 28.9116 0.802827 28.0053 0.503117C25.3043 -0.392413 22.9084 -0.0909028 21.0768 1.37345C20.7483 1.63625 20.3073 1.63625 19.9788 1.37345C18.1472 -0.0900028 15.7532 -0.391513 13.0504 0.504017C12.144 0.803727 11.4942 1.53725 11.3142 2.46788C11.1306 3.41291 11.4807 4.39305 12.2268 5.02577C13.1908 5.8412 14.6668 8.26948 14.9278 9.0255ZM13.0819 2.81079C13.1143 2.64249 13.2277 2.34188 13.6165 2.21317C14.4535 1.93596 15.2338 1.79826 15.9557 1.79826C17.0663 1.79826 18.0365 2.12587 18.8547 2.78019C19.8402 3.56952 21.2172 3.56772 22.201 2.78019C23.5519 1.70016 25.3133 1.50935 27.4391 2.21317C27.828 2.34188 27.9405 2.64339 27.9729 2.81079C28.0332 3.1231 27.918 3.43722 27.6642 3.65232C26.2889 4.81696 25.0595 7.77086 24.8291 8.43958C24.7139 8.77439 24.4096 8.9994 24.0739 8.9994H17.3858C17.0492 8.9994 16.7459 8.77439 16.6307 8.43958C16.2554 7.35234 14.5858 4.66486 13.3915 3.65232C13.1368 3.43632 13.0207 3.1222 13.0819 2.81079Z" fill="#D8984D"/>
<path d="M28.3797 12.5986C28.3797 12.1018 27.9765 11.6986 27.4797 11.6986C27.3123 11.6986 27.1638 11.7571 27.0297 11.8363C26.8956 11.7562 26.7471 11.6986 26.5797 11.6986H15.7793C15.2825 11.6986 14.8793 12.1018 14.8793 12.5986C14.8793 13.0954 15.2825 13.4986 15.7793 13.4986H26.5797V14.3987H16.6793C16.1825 14.3987 15.7793 14.8019 15.7793 15.2987C15.7793 15.7955 16.1825 16.1987 16.6793 16.1987H27.4122C28.2186 16.8702 29.2123 17.2545 30.2734 17.2545C31.4749 17.2545 32.6054 16.7856 33.4559 15.935C33.8078 15.5831 33.8078 15.0143 33.4559 14.6624C33.104 14.3105 32.5352 14.3105 32.1832 14.6624C31.1662 15.6794 29.404 15.6821 28.3797 14.675V12.5986Z" fill="#D8984D"/>
<path d="M19.3794 23.399C13.6093 23.399 6.77893 30.7171 6.77893 36.8994C6.77893 37.3962 7.18214 37.7995 7.67896 37.7995C8.17578 37.7995 8.57899 37.3962 8.57899 36.8994C8.57899 31.7603 14.6353 25.199 19.3794 25.199C19.8762 25.199 20.2794 24.7958 20.2794 24.299C20.2794 23.8022 19.8762 23.399 19.3794 23.399Z" fill="#D8984D"/>
<path d="M44.5802 28.7992C43.6523 28.7992 42.5471 28.8532 41.4328 28.9801C40.2205 26.7606 38.622 24.8516 36.6042 23.3063L30.1222 18.9006C29.0502 18.078 27.3609 17.0988 25.4006 17.0988H18.4011C16.6694 17.0988 14.9666 17.6883 13.6309 18.7386L7.2605 23.3801C0.620981 28.6003 -1.48059 37.7482 2.26444 45.132C3.62708 47.8186 5.90326 51.065 9.01556 51.2756C9.25947 51.2918 9.50608 51.3008 9.75448 51.3008H27.2682C28.5894 52.9443 30.6118 54.0009 32.8799 54.0009C35.4881 54.0009 37.7706 52.6013 39.0343 50.5187C40.6426 51.0182 42.6146 51.3008 44.5802 51.3008C48.9085 51.3008 53.5805 49.9247 53.5805 47.7007V42.7505H53.5094C53.5526 42.6047 53.5805 42.4553 53.5805 42.3005V36.9003V31.9502C53.5805 29.4625 47.923 28.7992 44.5802 28.7992ZM51.7121 31.9412C51.6932 31.9601 51.6779 31.979 51.6518 31.9997C51.6167 32.0276 51.5744 32.0573 51.5267 32.0879C51.4673 32.1257 51.3953 32.1653 51.317 32.2049C51.2531 32.2373 51.1865 32.2706 51.11 32.3039C51.0155 32.3462 50.9039 32.3885 50.7896 32.4317C50.6977 32.4659 50.605 32.5001 50.5006 32.5352C50.3692 32.5784 50.218 32.6216 50.0659 32.6639C49.9471 32.6972 49.8301 32.7314 49.6987 32.7638C49.5277 32.8061 49.3351 32.8448 49.1434 32.8835C48.9985 32.9132 48.8608 32.9438 48.7042 32.9717C48.4882 33.0095 48.247 33.0419 48.0085 33.0743C47.8456 33.0968 47.6934 33.122 47.5197 33.1418C47.2362 33.1742 46.9239 33.1967 46.6125 33.2192C46.4541 33.2309 46.3101 33.2471 46.1445 33.257C45.6531 33.284 45.1329 33.3002 44.5775 33.3002C44.0222 33.3002 43.502 33.284 43.0106 33.257C42.845 33.248 42.701 33.2318 42.5426 33.2192C42.2312 33.1958 41.9189 33.1733 41.6353 33.1418C41.4616 33.122 41.3095 33.0968 41.1466 33.0743C40.9081 33.0419 40.6669 33.0095 40.4509 32.9717C40.2943 32.9438 40.1566 32.9132 40.0117 32.8835C39.82 32.8439 39.6274 32.8052 39.4564 32.7638C39.325 32.7314 39.2089 32.6981 39.0892 32.6639C38.9371 32.6216 38.7868 32.5784 38.6544 32.5352C38.55 32.501 38.4573 32.4659 38.3655 32.4317C38.2512 32.3885 38.1396 32.3462 38.0451 32.3039C37.9686 32.2706 37.902 32.2373 37.8381 32.2049C37.7598 32.1644 37.6878 32.1248 37.6284 32.0879C37.5807 32.0573 37.5384 32.0285 37.5033 31.9997C37.479 31.9808 37.4655 31.9637 37.4475 31.9457C37.4583 31.9367 37.4655 31.9277 37.4781 31.9178C37.5114 31.8899 37.5591 31.8584 37.6059 31.8278C37.6788 31.7801 37.7697 31.7297 37.8768 31.6757C37.9353 31.646 37.9929 31.6172 38.0613 31.5875C38.1324 31.556 38.2143 31.5245 38.2962 31.492C38.3934 31.4542 38.4996 31.4164 38.6121 31.3786C38.6931 31.3516 38.7715 31.3237 38.8615 31.2967C39.0631 31.2355 39.2836 31.1752 39.5257 31.1167C39.6373 31.0897 39.7669 31.0654 39.8884 31.0402C40.0351 31.0087 40.1854 30.9781 40.3447 30.9493C40.5202 30.9178 40.7065 30.8881 40.8991 30.8593C41.9135 30.7063 43.1276 30.6001 44.5757 30.6001C48.8293 30.5992 51.2081 31.4767 51.7121 31.9412ZM37.9875 39.3457C38.0685 39.3799 38.1522 39.4123 38.2368 39.4456C38.3934 39.5068 38.5536 39.5644 38.7192 39.6211C38.8066 39.6508 38.8921 39.6796 38.9812 39.7075C39.1711 39.7669 39.3664 39.8218 39.5662 39.8749C39.6364 39.8938 39.7039 39.9145 39.775 39.9316C40.0477 40 40.3267 40.063 40.6129 40.1188C40.6723 40.1305 40.7344 40.1395 40.7947 40.1512C41.0242 40.1944 41.2564 40.234 41.4922 40.2691C41.593 40.2844 41.6947 40.297 41.7965 40.3105C41.999 40.3375 42.2024 40.3618 42.4085 40.3834C42.5165 40.3942 42.6245 40.405 42.7325 40.4149C42.9449 40.4338 43.1582 40.4482 43.3724 40.4608C43.4678 40.4662 43.5632 40.4734 43.6586 40.4779C43.9664 40.4914 44.2733 40.5004 44.5793 40.5004C44.8854 40.5004 45.1923 40.4914 45.5001 40.4779C45.5973 40.4734 45.6945 40.4662 45.7917 40.4608C46.0032 40.4482 46.2147 40.4338 46.4253 40.4158C46.536 40.4059 46.6467 40.3951 46.7565 40.3834C46.959 40.3627 47.1597 40.3384 47.3595 40.3114C47.4639 40.2979 47.5683 40.2844 47.6718 40.2691C47.9041 40.2349 48.1327 40.1953 48.3586 40.153C48.4225 40.1413 48.4873 40.1314 48.5512 40.1188C48.8356 40.0621 49.1137 40 49.3846 39.9325C49.4602 39.9136 49.5322 39.892 49.6069 39.8722C49.8022 39.82 49.9939 39.766 50.1793 39.7075C50.2702 39.6787 50.3575 39.649 50.4457 39.6193C50.6104 39.5635 50.7706 39.505 50.9264 39.4447C51.0101 39.4123 51.0938 39.379 51.1748 39.3448C51.3368 39.2764 51.4907 39.2044 51.6392 39.1306C51.686 39.1072 51.7391 39.0874 51.7841 39.064L51.7895 42.2357C51.578 42.7478 49.2523 43.8891 45.5829 44.0718C45.2535 44.0835 44.9349 44.0997 44.5793 44.0997C42.5966 44.0997 40.6381 43.7955 39.1423 43.2608C39.1369 43.2518 39.1306 43.2428 39.1252 43.2338C39.019 43.0484 38.9065 42.8675 38.785 42.6929C38.7669 42.6668 38.7463 42.6425 38.7273 42.6164C38.6148 42.4589 38.4987 42.305 38.3736 42.1574C38.3358 42.1133 38.2953 42.0728 38.2566 42.0287C38.1459 41.9036 38.0343 41.7803 37.9155 41.6633C37.8543 41.603 37.7886 41.549 37.7256 41.4905C37.6212 41.3951 37.5186 41.2997 37.4097 41.2106C37.3989 41.2016 37.3899 41.1917 37.3791 41.1836C37.3791 40.8317 37.38 40.0495 37.3809 39.0658C37.4268 39.0901 37.4817 39.1108 37.5285 39.1342C37.677 39.2071 37.8282 39.2782 37.9875 39.3457ZM26.0972 49.4998H9.75448C9.54658 49.4998 9.33957 49.4926 9.13526 49.4791C7.3667 49.3594 5.49644 47.5261 3.86919 44.3175C0.511176 37.6969 2.40574 29.4859 8.34594 24.8147L14.7163 20.1733C15.7622 19.3515 17.0708 18.8988 18.4002 18.8988H25.3997C26.8551 18.8988 28.1745 19.6765 29.0682 20.3596L35.5502 24.7643C37.1604 25.9992 38.5023 27.5094 39.5509 29.2654C38.4114 29.5003 37.3098 29.8585 36.5529 30.3841C36.5322 30.3985 36.5115 30.4129 36.4908 30.4273C36.3765 30.5101 36.2721 30.5974 36.1767 30.6892C36.1362 30.7279 36.1002 30.7675 36.0633 30.808C35.9922 30.8863 35.9238 30.9655 35.868 31.0501C35.8212 31.1194 35.787 31.1941 35.7509 31.2679C35.7194 31.3345 35.6816 31.3984 35.6591 31.4686C35.6096 31.6208 35.579 31.7801 35.579 31.9493V36.8994V40.1296C35.2757 40.0063 34.9616 39.9073 34.6394 39.8263C34.5971 39.8155 34.5548 39.8038 34.5125 39.7939C34.1975 39.7201 33.8762 39.6643 33.5477 39.6337C33.5108 39.6301 33.4739 39.631 33.437 39.6283C33.2525 39.6139 33.0671 39.6004 32.879 39.6004C32.7799 39.6004 32.6846 39.6112 32.5864 39.6148C32.5099 39.6175 32.4334 39.6211 32.3569 39.6265C32.0365 39.6499 31.7197 39.6868 31.4119 39.7507C31.4056 39.7516 31.4002 39.7516 31.3939 39.7534C31.3696 39.7588 31.3471 39.7687 31.3228 39.7741C31.0411 39.8362 30.7666 39.9181 30.4984 40.0135C30.4012 40.0477 30.304 40.0819 30.2086 40.1197C29.9413 40.2268 29.6803 40.3456 29.4291 40.4833C29.3346 40.5346 29.2464 40.5941 29.1546 40.6499C28.9791 40.757 28.8081 40.8695 28.6434 40.991C28.5462 41.0621 28.4481 41.1314 28.3545 41.207C28.143 41.378 27.9414 41.5607 27.7506 41.7551C27.6669 41.8397 27.5904 41.9297 27.5112 42.0188C27.3762 42.17 27.2475 42.3275 27.126 42.4895C27.0603 42.5777 26.991 42.6614 26.9289 42.7523C26.7705 42.9836 26.6291 43.2266 26.4986 43.4759C26.4482 43.5731 26.4023 43.6722 26.3555 43.7721C26.2529 43.9926 26.1611 44.2176 26.081 44.4498C26.0576 44.5173 26.0288 44.5812 26.0081 44.6496C25.9154 44.9448 25.8479 45.2508 25.7939 45.5604C25.7867 45.6 25.7723 45.6378 25.766 45.6774C25.7588 45.726 25.7588 45.7782 25.7525 45.8268C25.7237 46.0383 25.7057 46.2525 25.6958 46.4694C25.6922 46.5469 25.685 46.6233 25.6841 46.7017C25.6841 46.735 25.6787 46.7674 25.6787 46.8007C25.6787 46.9438 25.6922 47.0833 25.7003 47.2237C25.7354 48.0013 25.8623 48.7825 26.0972 49.4998ZM32.8799 52.1999C29.9233 52.1999 27.5175 49.8113 27.4833 46.8637C27.4833 46.7935 27.4851 46.7241 27.4878 46.6539C27.4905 46.5549 27.495 46.4568 27.5031 46.3587C27.5094 46.2759 27.5193 46.194 27.5292 46.1121C27.54 46.0284 27.5526 45.9456 27.567 45.8637C27.6075 45.6297 27.6597 45.3984 27.7308 45.1743C27.738 45.15 27.7488 45.1275 27.7569 45.1041C27.8325 44.8782 27.9234 44.6577 28.0287 44.4444C28.0386 44.4237 28.0485 44.403 28.0584 44.3832C28.5435 43.4309 29.3094 42.6263 30.2374 42.0962C30.241 42.0944 30.2437 42.0917 30.2473 42.0899C30.4579 41.9702 30.6793 41.8694 30.9043 41.7794C30.9628 41.756 31.0222 41.7353 31.0807 41.7146C31.2805 41.6435 31.4839 41.5814 31.6936 41.5355C31.7224 41.5292 31.7494 41.5193 31.7782 41.5139C32.0383 41.4608 32.2993 41.432 32.5594 41.4167C32.6089 41.414 32.6584 41.4104 32.7088 41.4095C32.9744 41.4014 33.239 41.4086 33.5 41.4392C33.5153 41.441 33.5297 41.4437 33.5441 41.4464C33.8195 41.4806 34.0922 41.5355 34.3604 41.6129C34.364 41.6138 34.3685 41.6147 34.3721 41.6156C34.6484 41.6957 34.9193 41.7992 35.1839 41.9243C35.4269 42.0395 35.6636 42.1682 35.8851 42.3167L35.9211 42.3419C35.9526 42.3635 35.9814 42.3878 36.012 42.4094C36.1614 42.5165 36.3045 42.6299 36.4422 42.7514C36.4755 42.7802 36.5079 42.8108 36.5403 42.8405C36.678 42.9683 36.8094 43.1015 36.9327 43.2419C36.9453 43.2563 36.9579 43.2689 36.9705 43.2833C37.2567 43.6164 37.5033 43.9845 37.7013 44.3796C37.7472 44.4696 37.7931 44.5605 37.8336 44.6532C37.902 44.8107 37.9614 44.97 38.0145 45.1311C38.0181 45.1428 38.0235 45.1545 38.0271 45.1662C38.0793 45.3291 38.1216 45.4947 38.1576 45.6612C38.1603 45.6747 38.1648 45.6873 38.1675 45.6999C38.2017 45.8655 38.2269 46.0329 38.2458 46.2012C38.2476 46.2165 38.2512 46.23 38.253 46.2453C38.2719 46.4289 38.2818 46.6134 38.2818 46.7998C38.2818 46.9906 38.271 47.1805 38.2512 47.3695C38.2485 47.3974 38.2422 47.4235 38.2386 47.4514C38.2188 47.6143 38.1945 47.7763 38.1594 47.9356C38.1558 47.9536 38.1495 47.9707 38.1459 47.9887C38.1072 48.1597 38.0613 48.3289 38.0055 48.4963C38.0028 48.5035 38.0001 48.5107 37.9974 48.5179C37.938 48.6925 37.8696 48.8644 37.7922 49.0345C36.9381 50.8985 35.0597 52.1999 32.8799 52.1999ZM44.5802 49.4998C42.872 49.4998 41.1718 49.2721 39.775 48.8644C39.7759 48.8626 39.7759 48.8608 39.7759 48.859C39.8632 48.5674 39.9271 48.2668 39.9775 47.9608C39.9892 47.8879 40.0009 47.8159 40.0108 47.7421C40.0513 47.4325 40.0801 47.1202 40.0801 46.7998C40.0801 46.5666 40.0675 46.3353 40.045 46.1058C40.0369 46.023 40.0225 45.9429 40.0117 45.861C39.9964 45.7449 39.9856 45.6279 39.9649 45.5136C41.3302 45.7656 42.9161 45.8997 44.5802 45.8997C46.7313 45.8997 49.8409 45.6252 51.7841 44.7666L51.7895 47.6359C51.5591 48.193 48.8275 49.4998 44.5802 49.4998ZM44.5802 38.6995C40.3474 38.6995 37.6221 37.4025 37.3845 36.9048C37.3854 35.8788 37.3863 34.8375 37.3863 33.9698C37.4088 33.9797 37.4358 33.9878 37.4592 33.9977C37.6743 34.0895 37.8993 34.1759 38.1387 34.2551C38.1513 34.2596 38.1639 34.2641 38.1774 34.2677C38.4222 34.3469 38.6805 34.418 38.9443 34.4837C39.0307 34.5053 39.1198 34.5251 39.208 34.5449C39.4006 34.5891 39.595 34.6314 39.7939 34.6692C39.8902 34.6881 39.9856 34.7061 40.0828 34.7232C40.3015 34.7619 40.5211 34.7961 40.7434 34.8285C40.8136 34.8384 40.8829 34.8501 40.9531 34.86C41.2438 34.8987 41.5345 34.9329 41.8235 34.9608C41.8964 34.968 41.9675 34.9734 42.0404 34.9797C42.2627 34.9995 42.4823 35.0175 42.7001 35.0319C42.7946 35.0382 42.8864 35.0436 42.9791 35.049C43.1807 35.0607 43.3769 35.0697 43.5713 35.0769C43.6532 35.0796 43.7351 35.0832 43.8152 35.0859C44.0789 35.0931 44.3363 35.0976 44.5793 35.0976C44.8214 35.0976 45.0789 35.0931 45.3426 35.0859C45.4245 35.0832 45.5073 35.0796 45.5901 35.0769C45.7827 35.0697 45.978 35.0607 46.1787 35.049C46.2732 35.0436 46.3659 35.0382 46.4613 35.0319C46.6791 35.0175 46.8996 34.9995 47.1219 34.9788C47.1939 34.9725 47.2641 34.9671 47.3361 34.9599C47.6259 34.9311 47.9167 34.8978 48.2074 34.8582C48.2785 34.8483 48.3487 34.8366 48.4198 34.8267C48.6412 34.7952 48.8608 34.7601 49.0786 34.7214C49.1767 34.7043 49.2721 34.6854 49.3684 34.6674C49.5673 34.6287 49.7626 34.5873 49.9561 34.5422C50.0443 34.5215 50.1325 34.5026 50.2189 34.481C50.488 34.4135 50.7509 34.3415 51.0002 34.2605C51.0128 34.256 51.0236 34.2515 51.0362 34.2479C51.2711 34.1705 51.4934 34.085 51.7049 33.995C51.7301 33.9842 51.7598 33.9752 51.785 33.9644L51.7904 36.8337C51.5591 37.3926 48.8275 38.6995 44.5802 38.6995Z" fill="#D8984D"/>
</g>
<defs>
<clipPath id="clip0">
<rect width="54" height="54" fill="white"/>
</clipPath>
</defs>
</svg>
